<svg xmlns="http://www.w3.org/2000/svg" version="1.1" xmlns:xlink="http://www.w3.org/1999/xlink" xmlns:svgjs="http://svgjs.com/svgjs" width="512" height="512"><svg width="512" height="512" viewBox="0 0 512 512" fill="none" xmlns="http://www.w3.org/2000/svg">
  <g clip-path="url(#clip0_1_3)">
    <mask id="SvgjsMask1000" maskUnits="userSpaceOnUse" x="44" y="119" width="407" height="250" fill="black">
      <rect fill="white" x="44" y="119" width="407" height="250"></rect>
      <path d="M136.28 127V135.4C124.013 135.4 116.28 137 113.08 140.2L174.28 307.8L233.08 142.6C230.413 137.8 222.146 135.4 208.28 135.4V127H273.88V135.4C258.946 135.4 250.813 137.533 249.48 141.8L171.08 361H151.88L74.2797 143.8C72.1464 138.2 63.613 135.4 48.6797 135.4V127H136.28ZM367.905 365C354.838 365 341.505 363 327.905 359C314.305 355 307.238 353 306.705 353C305.105 353 303.238 353.8 301.105 355.4C298.971 357 297.905 358.867 297.905 361H288.705V305.4H297.505C300.438 321.4 308.305 333.133 321.105 340.6C334.171 347.8 348.971 351.4 365.505 351.4C379.638 351.4 391.238 348.2 400.305 341.8C409.371 335.4 413.905 325.8 413.905 313C413.905 307.133 412.571 301.8 409.905 297C407.505 292.2 403.638 287.8 398.305 283.8C393.238 279.533 388.305 276.067 383.505 273.4C378.705 270.467 372.438 267 364.705 263C357.238 258.733 351.505 255.4 347.505 253C338.171 247.133 331.238 242.733 326.705 239.8C322.171 236.6 316.305 231.933 309.105 225.8C302.171 219.667 297.105 213.267 293.905 206.6C290.705 199.933 289.105 192.733 289.105 185C289.105 169.267 296.305 155 310.705 142.2C325.105 129.4 341.238 123 359.105 123C366.838 123 376.438 125 387.905 129C399.371 133 405.905 135 407.505 135C410.705 135 412.305 132.333 412.305 127H421.505L425.505 177.8H416.705C415.105 166.067 409.238 156.333 399.105 148.6C388.971 140.6 375.771 136.6 359.505 136.6C347.238 136.6 337.371 140.6 329.905 148.6C322.705 156.333 319.105 164.2 319.105 172.2C319.105 177.267 320.305 182.067 322.705 186.6C325.105 190.867 328.838 194.867 333.905 198.6C338.971 202.333 343.771 205.667 348.305 208.6C352.838 211.267 358.838 214.6 366.305 218.6C374.038 222.6 379.905 225.8 383.905 228.2C394.838 234.867 402.705 239.8 407.505 243C412.305 246.2 418.438 251.133 425.905 257.8C433.638 264.467 438.971 271.4 441.905 278.6C445.105 285.533 446.705 293.267 446.705 301.8C446.705 321.533 438.705 337 422.705 348.2C406.705 359.4 388.438 365 367.905 365Z"></path>
    </mask>
    <path d="M136.28 127V135.4C124.013 135.4 116.28 137 113.08 140.2L174.28 307.8L233.08 142.6C230.413 137.8 222.146 135.4 208.28 135.4V127H273.88V135.4C258.946 135.4 250.813 137.533 249.48 141.8L171.08 361H151.88L74.2797 143.8C72.1464 138.2 63.613 135.4 48.6797 135.4V127H136.28ZM367.905 365C354.838 365 341.505 363 327.905 359C314.305 355 307.238 353 306.705 353C305.105 353 303.238 353.8 301.105 355.4C298.971 357 297.905 358.867 297.905 361H288.705V305.4H297.505C300.438 321.4 308.305 333.133 321.105 340.6C334.171 347.8 348.971 351.4 365.505 351.4C379.638 351.4 391.238 348.2 400.305 341.8C409.371 335.4 413.905 325.8 413.905 313C413.905 307.133 412.571 301.8 409.905 297C407.505 292.2 403.638 287.8 398.305 283.8C393.238 279.533 388.305 276.067 383.505 273.4C378.705 270.467 372.438 267 364.705 263C357.238 258.733 351.505 255.4 347.505 253C338.171 247.133 331.238 242.733 326.705 239.8C322.171 236.6 316.305 231.933 309.105 225.8C302.171 219.667 297.105 213.267 293.905 206.6C290.705 199.933 289.105 192.733 289.105 185C289.105 169.267 296.305 155 310.705 142.2C325.105 129.4 341.238 123 359.105 123C366.838 123 376.438 125 387.905 129C399.371 133 405.905 135 407.505 135C410.705 135 412.305 132.333 412.305 127H421.505L425.505 177.8H416.705C415.105 166.067 409.238 156.333 399.105 148.6C388.971 140.6 375.771 136.6 359.505 136.6C347.238 136.6 337.371 140.6 329.905 148.6C322.705 156.333 319.105 164.2 319.105 172.2C319.105 177.267 320.305 182.067 322.705 186.6C325.105 190.867 328.838 194.867 333.905 198.6C338.971 202.333 343.771 205.667 348.305 208.6C352.838 211.267 358.838 214.6 366.305 218.6C374.038 222.6 379.905 225.8 383.905 228.2C394.838 234.867 402.705 239.8 407.505 243C412.305 246.2 418.438 251.133 425.905 257.8C433.638 264.467 438.971 271.4 441.905 278.6C445.105 285.533 446.705 293.267 446.705 301.8C446.705 321.533 438.705 337 422.705 348.2C406.705 359.4 388.438 365 367.905 365Z" fill="#FF0000" fill-opacity="0.9"></path>
    <path d="M136.28 127V135.4C124.013 135.4 116.28 137 113.08 140.2L174.28 307.8L233.08 142.6C230.413 137.8 222.146 135.4 208.28 135.4V127H273.88V135.4C258.946 135.4 250.813 137.533 249.48 141.8L171.08 361H151.88L74.2797 143.8C72.1464 138.2 63.613 135.4 48.6797 135.4V127H136.28ZM367.905 365C354.838 365 341.505 363 327.905 359C314.305 355 307.238 353 306.705 353C305.105 353 303.238 353.8 301.105 355.4C298.971 357 297.905 358.867 297.905 361H288.705V305.4H297.505C300.438 321.4 308.305 333.133 321.105 340.6C334.171 347.8 348.971 351.4 365.505 351.4C379.638 351.4 391.238 348.2 400.305 341.8C409.371 335.4 413.905 325.8 413.905 313C413.905 307.133 412.571 301.8 409.905 297C407.505 292.2 403.638 287.8 398.305 283.8C393.238 279.533 388.305 276.067 383.505 273.4C378.705 270.467 372.438 267 364.705 263C357.238 258.733 351.505 255.4 347.505 253C338.171 247.133 331.238 242.733 326.705 239.8C322.171 236.6 316.305 231.933 309.105 225.8C302.171 219.667 297.105 213.267 293.905 206.6C290.705 199.933 289.105 192.733 289.105 185C289.105 169.267 296.305 155 310.705 142.2C325.105 129.4 341.238 123 359.105 123C366.838 123 376.438 125 387.905 129C399.371 133 405.905 135 407.505 135C410.705 135 412.305 132.333 412.305 127H421.505L425.505 177.8H416.705C415.105 166.067 409.238 156.333 399.105 148.6C388.971 140.6 375.771 136.6 359.505 136.6C347.238 136.6 337.371 140.6 329.905 148.6C322.705 156.333 319.105 164.2 319.105 172.2C319.105 177.267 320.305 182.067 322.705 186.6C325.105 190.867 328.838 194.867 333.905 198.6C338.971 202.333 343.771 205.667 348.305 208.6C352.838 211.267 358.838 214.6 366.305 218.6C374.038 222.6 379.905 225.8 383.905 228.2C394.838 234.867 402.705 239.8 407.505 243C412.305 246.2 418.438 251.133 425.905 257.8C433.638 264.467 438.971 271.4 441.905 278.6C445.105 285.533 446.705 293.267 446.705 301.8C446.705 321.533 438.705 337 422.705 348.2C406.705 359.4 388.438 365 367.905 365Z" fill="black" fill-opacity="0.4"></path>
    <path d="M136.28 127H140.28V123H136.28V127ZM136.28 135.4V139.4H140.28V135.4H136.28ZM113.08 140.2L110.251 137.372L108.447 139.176L109.322 141.572L113.08 140.2ZM174.28 307.8L170.522 309.172L174.328 319.594L178.048 309.141L174.28 307.8ZM233.08 142.6L236.848 143.941L237.454 142.238L236.576 140.657L233.08 142.6ZM208.28 135.4H204.28V139.4H208.28V135.4ZM208.28 127V123H204.28V127H208.28ZM273.88 127H277.88V123H273.88V127ZM273.88 135.4V139.4H277.88V135.4H273.88ZM249.48 141.8L253.246 143.147L253.273 143.071L253.298 142.993L249.48 141.8ZM171.08 361V365H173.897L174.846 362.347L171.08 361ZM151.88 361L148.113 362.346L149.061 365H151.88V361ZM74.2797 143.8L78.0465 142.454L78.0325 142.415L78.0176 142.376L74.2797 143.8ZM48.6797 135.4H44.6797V139.4H48.6797V135.4ZM48.6797 127V123H44.6797V127H48.6797ZM132.28 127V135.4H140.28V127H132.28ZM136.28 131.4C130.006 131.4 124.706 131.806 120.469 132.683C116.339 133.537 112.679 134.944 110.251 137.372L115.908 143.028C116.681 142.256 118.487 141.263 122.09 140.517C125.586 139.794 130.287 139.4 136.28 139.4V131.4ZM109.322 141.572L170.522 309.172L178.037 306.428L116.837 138.828L109.322 141.572ZM178.048 309.141L236.848 143.941L229.311 141.259L170.511 306.459L178.048 309.141ZM236.576 140.657C234.505 136.929 230.584 134.691 225.995 133.359C221.347 132.009 215.39 131.4 208.28 131.4V139.4C215.036 139.4 220.145 139.991 223.764 141.041C227.442 142.109 228.988 143.471 229.583 144.543L236.576 140.657ZM212.28 135.4V127H204.28V135.4H212.28ZM208.28 131H273.88V123H208.28V131ZM269.88 127V135.4H277.88V127H269.88ZM273.88 131.4C266.291 131.4 260.124 131.935 255.565 133.131C251.299 134.25 246.997 136.334 245.662 140.607L253.298 142.993C253.302 142.98 253.319 142.925 253.403 142.822C253.493 142.711 253.669 142.534 253.995 142.314C254.672 141.856 255.812 141.337 257.595 140.869C261.169 139.932 266.535 139.4 273.88 139.4V131.4ZM245.713 140.453L167.313 359.653L174.846 362.347L253.246 143.147L245.713 140.453ZM171.08 357H151.88V365H171.08V357ZM155.647 359.654L78.0465 142.454L70.5129 145.146L148.113 362.346L155.647 359.654ZM78.0176 142.376C76.3421 137.978 72.3549 135.284 67.5268 133.699C62.6789 132.109 56.3285 131.4 48.6797 131.4V139.4C55.9642 139.4 61.3471 140.091 65.0326 141.301C68.7378 142.516 70.0839 144.022 70.5417 145.224L78.0176 142.376ZM52.6797 135.4V127H44.6797V135.4H52.6797ZM48.6797 131H136.28V123H48.6797V131ZM327.905 359L326.776 362.837L327.905 359ZM301.105 355.4L303.505 358.6L303.505 358.6L301.105 355.4ZM297.905 361V365H301.905V361H297.905ZM288.705 361H284.705V365H288.705V361ZM288.705 305.4V301.4H284.705V305.4H288.705ZM297.505 305.4L301.439 304.679L300.838 301.4H297.505V305.4ZM321.105 340.6L319.089 344.055L319.131 344.08L319.174 344.103L321.105 340.6ZM400.305 341.8L402.611 345.068L402.611 345.068L400.305 341.8ZM409.905 297L406.327 298.789L406.366 298.867L406.408 298.943L409.905 297ZM398.305 283.8L395.728 286.86L395.814 286.932L395.905 287L398.305 283.8ZM383.505 273.4L381.419 276.813L381.49 276.856L381.562 276.897L383.505 273.4ZM364.705 263L362.72 266.473L362.793 266.514L362.867 266.553L364.705 263ZM347.505 253L345.376 256.387L345.411 256.409L345.447 256.43L347.505 253ZM326.705 239.8L324.398 243.068L324.464 243.114L324.532 243.158L326.705 239.8ZM309.105 225.8L306.454 228.796L306.482 228.821L306.511 228.845L309.105 225.8ZM293.905 206.6L290.299 208.331L290.299 208.331L293.905 206.6ZM310.705 142.2L308.047 139.21L308.047 139.21L310.705 142.2ZM387.905 129L389.222 125.223L389.222 125.223L387.905 129ZM412.305 127V123H408.305V127H412.305ZM421.505 127L425.492 126.686L425.202 123H421.505V127ZM425.505 177.8V181.8H429.832L429.492 177.486L425.505 177.8ZM416.705 177.8L412.741 178.34L413.213 181.8H416.705V177.8ZM399.105 148.6L396.626 151.74L396.652 151.76L396.678 151.78L399.105 148.6ZM329.905 148.6L326.98 145.871L326.977 145.874L329.905 148.6ZM322.705 186.6L319.17 188.472L319.193 188.517L319.218 188.561L322.705 186.6ZM333.905 198.6L331.532 201.82L331.532 201.82L333.905 198.6ZM348.305 208.6L346.132 211.958L346.203 212.005L346.277 212.048L348.305 208.6ZM366.305 218.6L364.416 222.126L364.441 222.14L364.467 222.153L366.305 218.6ZM383.905 228.2L385.987 224.785L385.975 224.777L385.963 224.77L383.905 228.2ZM425.905 257.8L423.241 260.784L423.267 260.807L423.293 260.83L425.905 257.8ZM441.905 278.6L438.2 280.109L438.235 280.194L438.273 280.276L441.905 278.6ZM422.705 348.2L420.411 344.923L420.411 344.923L422.705 348.2ZM367.905 361C355.251 361 342.298 359.064 329.033 355.163L326.776 362.837C340.712 366.936 354.425 369 367.905 369V361ZM329.033 355.163C322.23 353.162 317.047 351.657 313.494 350.651C311.72 350.149 310.334 349.766 309.348 349.507C308.858 349.378 308.44 349.272 308.11 349.196C307.948 349.159 307.775 349.121 307.61 349.09C307.545 349.078 307.151 349 306.705 349V357C306.46 357 306.28 356.975 306.247 356.971C306.215 356.967 306.19 356.963 306.177 356.961C306.163 356.958 306.154 356.957 306.153 356.957C306.151 356.956 306.163 356.958 306.193 356.965C306.221 356.971 306.261 356.98 306.312 356.991C306.524 357.04 306.851 357.122 307.312 357.243C308.226 357.484 309.556 357.851 311.315 358.349C314.829 359.343 319.979 360.838 326.776 362.837L329.033 355.163ZM306.705 349C303.831 349 301.11 350.396 298.705 352.2L303.505 358.6C305.366 357.204 306.379 357 306.705 357V349ZM298.705 352.2C295.843 354.346 293.905 357.295 293.905 361H301.905C301.905 360.438 302.099 359.654 303.505 358.6L298.705 352.2ZM297.905 357H288.705V365H297.905V357ZM292.705 361V305.4H284.705V361H292.705ZM288.705 309.4H297.505V301.4H288.705V309.4ZM293.57 306.121C296.691 323.142 305.176 335.939 319.089 344.055L323.12 337.145C311.434 330.328 304.185 319.658 301.439 304.679L293.57 306.121ZM319.174 344.103C332.894 351.663 348.371 355.4 365.505 355.4V347.4C349.572 347.4 335.448 343.937 323.035 337.097L319.174 344.103ZM365.505 355.4C380.238 355.4 392.706 352.06 402.611 345.068L397.998 338.532C389.77 344.34 379.038 347.4 365.505 347.4V355.4ZM402.611 345.068C412.914 337.795 417.905 326.87 417.905 313H409.905C409.905 324.73 405.828 333.005 397.998 338.532L402.611 345.068ZM417.905 313C417.905 306.502 416.421 300.492 413.401 295.057L406.408 298.943C408.722 303.108 409.905 307.765 409.905 313H417.905ZM413.482 295.211C410.746 289.738 406.417 284.884 400.705 280.6L395.905 287C400.859 290.716 404.264 294.662 406.327 298.789L413.482 295.211ZM400.881 280.74C395.657 276.341 390.513 272.717 385.447 269.903L381.562 276.897C386.097 279.416 390.819 282.726 395.728 286.86L400.881 280.74ZM385.59 269.987C380.678 266.985 374.32 263.47 366.542 259.447L362.867 266.553C370.556 270.53 376.731 273.948 381.419 276.813L385.59 269.987ZM366.689 259.527C359.23 255.265 353.526 251.948 349.563 249.57L345.447 256.43C349.483 258.852 355.246 262.202 362.72 266.473L366.689 259.527ZM349.633 249.613C340.303 243.749 333.388 239.36 328.878 236.442L324.532 243.158C329.088 246.107 336.04 250.518 345.376 256.387L349.633 249.613ZM329.011 236.532C324.622 233.434 318.861 228.856 311.699 222.755L306.511 228.845C313.749 235.011 319.721 239.766 324.398 243.068L329.011 236.532ZM311.755 222.804C305.124 216.938 300.43 210.95 297.511 204.869L290.299 208.331C293.78 215.584 299.219 222.395 306.454 228.796L311.755 222.804ZM297.511 204.869C294.582 198.767 293.105 192.162 293.105 185H285.105C285.105 193.304 286.827 201.099 290.299 208.331L297.511 204.869ZM293.105 185C293.105 170.661 299.608 157.415 313.362 145.19L308.047 139.21C293.001 152.585 285.105 167.873 285.105 185H293.105ZM313.362 145.19C327.092 132.985 342.298 127 359.105 127V119C340.178 119 323.117 125.815 308.047 139.21L313.362 145.19ZM359.105 127C366.209 127 375.331 128.85 386.587 132.777L389.222 125.223C377.545 121.15 367.467 119 359.105 119V127ZM386.587 132.777C392.338 134.783 396.894 136.302 400.234 137.325C401.9 137.835 403.305 138.234 404.425 138.509C405.409 138.751 406.557 139 407.505 139V131C407.652 131 407.384 130.999 406.335 130.741C405.421 130.516 404.176 130.165 402.576 129.675C399.382 128.698 394.938 127.217 389.222 125.223L386.587 132.777ZM407.505 139C410.46 139 412.986 137.638 414.535 135.058C415.888 132.803 416.305 129.936 416.305 127H408.305C408.305 129.397 407.922 130.53 407.675 130.942C407.587 131.088 407.571 131.054 407.662 131.003C407.748 130.956 407.738 131 407.505 131V139ZM412.305 131H421.505V123H412.305V131ZM417.517 127.314L421.517 178.114L429.492 177.486L425.492 126.686L417.517 127.314ZM425.505 173.8H416.705V181.8H425.505V173.8ZM420.668 177.26C418.913 164.392 412.435 153.741 401.531 145.42L396.678 151.78C406.041 158.925 411.296 167.741 412.741 178.34L420.668 177.26ZM401.583 145.46C390.577 136.772 376.433 132.6 359.505 132.6V140.6C375.11 140.6 387.365 144.428 396.626 151.74L401.583 145.46ZM359.505 132.6C346.277 132.6 335.299 136.958 326.98 145.871L332.829 151.329C339.444 144.242 348.199 140.6 359.505 140.6V132.6ZM326.977 145.874C319.315 154.104 315.105 162.899 315.105 172.2H323.105C323.105 165.501 326.095 158.562 332.832 151.326L326.977 145.874ZM315.105 172.2C315.105 177.927 316.468 183.369 319.17 188.472L326.24 184.728C324.141 180.764 323.105 176.606 323.105 172.2H315.105ZM319.218 188.561C321.963 193.441 326.134 197.843 331.532 201.82L336.277 195.38C331.542 191.89 328.246 188.292 326.191 184.639L319.218 188.561ZM331.532 201.82C336.653 205.594 341.52 208.974 346.132 211.958L350.478 205.242C346.022 202.359 341.289 199.073 336.277 195.38L331.532 201.82ZM346.277 212.048C350.875 214.753 356.927 218.114 364.416 222.126L368.194 215.074C360.749 211.086 354.801 207.781 350.333 205.152L346.277 212.048ZM364.467 222.153C372.178 226.141 377.956 229.295 381.847 231.63L385.963 224.77C381.854 222.305 375.898 219.059 368.142 215.047L364.467 222.153ZM381.822 231.615C392.751 238.279 400.558 243.176 405.286 246.328L409.723 239.672C404.851 236.424 396.925 231.454 385.987 224.785L381.822 231.615ZM405.286 246.328C409.857 249.375 415.828 254.166 423.241 260.784L428.569 254.816C421.048 248.101 414.753 243.025 409.723 239.672L405.286 246.328ZM423.293 260.83C430.691 267.208 435.569 273.65 438.2 280.109L445.609 277.091C442.374 269.15 436.585 261.726 428.516 254.77L423.293 260.83ZM438.273 280.276C441.203 286.625 442.705 293.777 442.705 301.8H450.705C450.705 292.756 449.006 284.441 445.537 276.924L438.273 280.276ZM442.705 301.8C442.705 320.244 435.328 334.481 420.411 344.923L424.999 351.477C442.081 339.519 450.705 322.822 450.705 301.8H442.705ZM420.411 344.923C405.119 355.627 387.662 361 367.905 361V369C389.214 369 408.291 363.173 424.999 351.477L420.411 344.923Z" fill="black" mask="url(#path-1-outside-1_1_3)"></path>
  </g>
</svg><style>@media (prefers-color-scheme: light) { :root { filter: contrast(1) brightness(1); } }
</style></svg>